<?xml version="1.0" encoding="utf-8"?>
<!-- Generator: Adobe Illustrator 18.1.0, SVG Export Plug-In . SVG Version: 6.00 Build 0)  -->
<svg version="1.1" id="Layer_1" xmlns="http://www.w3.org/2000/svg" xmlns:xlink="http://www.w3.org/1999/xlink" x="0px" y="0px"
	 viewBox="0 0 150 150" enable-background="new 0 0 150 150" xml:space="preserve">
<g id="logo__item--logo_0">
	<g transform="translate(-16.146252285191963 -26.5) scale(2.772987889933242 2.772987889933242) rotate(0 0 0)">
		<g>
			<path fill="#BCBF79" d="M30.8,14.9c-5.4,3.7,0,8.8,0,8.8S36.2,18.5,30.8,14.9z"/>
			<path fill="#BCBF79" d="M14.5,23.8c-2.9,7.4,6.1,8.8,6.1,8.8S22.4,23.8,14.5,23.8z"/>
			<path fill="#54A3A1" d="M23.8,17.2c-7.5,5.5,0.4,12.5,0.4,12.5S31.7,22.2,23.8,17.2z"/>
			<path fill="#B8BB41" d="M34.6,28.2c9.1-1.9,4.8-11.5,4.8-11.5S29.5,20.5,34.6,28.2z"/>
			<path fill="#54A3A1" d="M40.6,28.9c5,0.7,4.5-5,4.5-5S39.4,24,40.6,28.9z"/>
			<path fill="#608EAF" d="M9.4,35.6c1.3,4.7,6.3,2.1,6.3,2.1S13.3,32.6,9.4,35.6z"/>
			<path fill="#608EAF" d="M47.1,28.3c-6.4-0.1-5,7-5,7S49.3,34.3,47.1,28.3z"/>
			<path fill="#BCBF79" d="M43.7,49.6c0.7-6.4-6.6-5.6-6.6-5.6S37.5,51.3,43.7,49.6z"/>
			<path fill="#B8BB41" d="M15.8,45.9c6.7,4,9.5-4.5,9.5-4.5S17.1,38.2,15.8,45.9z"/>
			<path fill="#A7CFC1" d="M56.6,41.1C52.7,48,46.1,42,46.1,42S51.6,35.1,56.6,41.1z"/>
			<path fill="#A7CFC1" d="M23.5,50.5c5.5,0.5,4.8-5.8,4.8-5.8S21.9,45.2,23.5,50.5z"/>
			<path fill="#54A3A1" d="M28.4,32.8c0,1-0.9,1.9-1.9,1.9c-1,0-1.9-0.8-1.9-1.9c0-1,0.9-1.9,1.9-1.9C27.5,30.9,28.4,31.7,28.4,32.8
				z"/>
			<path fill="#608EAF" d="M38.6,34.1c0,1.4-1.1,2.4-2.4,2.4s-2.4-1.1-2.4-2.4c0-1.4,1.1-2.4,2.4-2.4S38.6,32.7,38.6,34.1z"/>
			<polygon fill="#C3996B" points="38.4,41 42.1,35.3 32.3,44.2 30.9,23.9 29.7,42 20.8,33 24.2,37.7 15.8,37.7 25.5,39.5 29.5,45 
				28.4,58.8 33.4,58.8 32.6,48.9 36.8,43.1 45.8,42 			"/>
		</g>
	</g>
</g>
</svg>
